<svg width="11" height="11" viewBox="0 0 11 11" fill="none" xmlns="http://www.w3.org/2000/svg">
<g clip-path="url(#clip0_1_38)">
<g filter="url(#filter0_d_1_38)">
<path d="M10.7958 2.6103C10.6598 2.47421 10.4987 2.40622 10.3124 2.40622H0.687552C0.501235 2.40622 0.340164 2.47421 0.204076 2.6103C0.0679876 2.74653 0 2.9076 0 3.09381C0 3.27998 0.0679876 3.44105 0.204076 3.57717L5.01652 8.38962C5.15276 8.52571 5.31383 8.59385 5.5 8.59385C5.68617 8.59385 5.84739 8.52571 5.98336 8.38962L10.7958 3.57713C10.9317 3.44105 11 3.27998 11 3.09377C11 2.9076 10.9317 2.74653 10.7958 2.6103Z" fill="#FF5757"/>
</g>
</g>
<defs>
<filter id="filter0_d_1_38" x="-2" y="2.40622" width="15" height="10.1876" filterUnits="userSpaceOnUse" color-interpolation-filters="sRGB">
<feFlood flood-opacity="0" result="BackgroundImageFix"/>
<feColorMatrix in="SourceAlpha" type="matrix" values="0 0 0 0 0 0 0 0 0 0 0 0 0 0 0 0 0 0 127 0" result="hardAlpha"/>
<feOffset dy="2"/>
<feGaussianBlur stdDeviation="1"/>
<feComposite in2="hardAlpha" operator="out"/>
<feColorMatrix type="matrix" values="0 0 0 0 0 0 0 0 0 0 0 0 0 0 0 0 0 0 0.15 0"/>
<feBlend mode="normal" in2="BackgroundImageFix" result="effect1_dropShadow_1_38"/>
<feBlend mode="normal" in="SourceGraphic" in2="effect1_dropShadow_1_38" result="shape"/>
</filter>
<clipPath id="clip0_1_38">
<rect width="11" height="11" fill="white"/>
</clipPath>
</defs>
</svg>
