<svg width="14" height="14" viewBox="0 0 14 14" fill="none" xmlns="http://www.w3.org/2000/svg">
<path d="M6.51742 12.7959C6.0291 12.404 1.49452 7.99429 1.44384 7.94608C1.24356 7.7458 1.11746 7.53811 1.08285 7.34773C1.047 7.14993 1.10757 6.97685 1.26829 6.81614C1.41787 6.66655 1.60084 6.58743 1.7974 6.58743C2.03724 6.58743 2.28325 6.70117 2.48847 6.90762L4.54436 8.88316C4.58021 8.91777 4.62719 8.93508 4.67293 8.93508C4.72114 8.93508 4.76812 8.91654 4.80397 8.88068C4.87567 8.80898 4.87567 8.69277 4.80521 8.62107L1.52296 5.23127C1.19411 4.90242 1.03958 4.39927 1.43024 4.00861C1.57982 3.85902 1.76279 3.7799 1.95935 3.7799C2.19919 3.7799 2.4452 3.89364 2.65042 4.10009L6.00808 7.37369C6.04393 7.40831 6.09091 7.42685 6.13789 7.42685C6.18487 7.42685 6.23308 7.40831 6.26893 7.37246C6.34063 7.30075 6.34187 7.18455 6.27017 7.11161L2.23751 2.97758C2.05084 2.7909 1.93834 2.56714 1.91856 2.34956C1.90001 2.12827 1.9779 1.92305 2.14479 1.75616C2.29438 1.60657 2.47734 1.52745 2.67391 1.52745C2.91374 1.52745 3.15975 1.64119 3.36497 1.8464L7.47799 5.85681C7.51384 5.89142 7.56082 5.90997 7.60779 5.90997C7.65477 5.90997 7.70299 5.89142 7.73884 5.85557C7.81054 5.78387 7.81178 5.66766 7.74007 5.59472L4.75328 2.52511C4.56537 2.3372 4.45288 2.11467 4.43433 1.89709C4.41579 1.6758 4.49367 1.47058 4.66057 1.30369C4.81015 1.1541 4.99312 1.07498 5.18968 1.07498C5.42952 1.07498 5.67553 1.18872 5.88075 1.39517C6.97607 2.47071 9.83552 5.28319 9.93195 5.38703C10.2991 5.64046 10.3733 5.25723 10.3918 5.00874C10.4129 4.71946 10.0815 3.70944 10.2744 2.80079C10.5983 1.59297 11.5317 1.79077 11.5527 1.80066C12.0645 2.0405 11.9668 2.39901 11.7851 3.11974L11.7665 3.26191C11.5762 4.20394 12.8841 6.9954 12.9805 7.20433C13.4936 8.32684 14.0845 10.6028 12.1275 12.5598C9.98264 14.7047 7.32716 13.6056 6.51742 12.7959Z" fill="url(#paint0_radial_1_11)"/>
<path d="M9.26935 14C7.95398 14 6.83517 13.3707 6.39383 12.9343C5.99699 12.6104 3.49234 10.1923 1.45252 8.21309C1.36969 8.13273 1.32148 8.08699 1.31653 8.08081C1.08535 7.84963 0.941949 7.60856 0.901152 7.38109C0.854175 7.12271 0.934531 6.88906 1.13728 6.68508C1.32271 6.49964 1.55019 6.40198 1.79744 6.40198C2.08796 6.40198 2.37971 6.53549 2.61954 6.77656L4.67296 8.74962L1.38947 5.35982C1.01118 4.98152 0.820796 4.35474 1.29923 3.87755C1.48466 3.69211 1.71213 3.59445 1.95939 3.59445C2.2499 3.59445 2.54166 3.72796 2.78149 3.96903L6.13669 7.24016L2.10526 3.10736C1.89016 2.89226 1.75788 2.62893 1.73439 2.36685C1.7109 2.08746 1.80733 1.83155 2.01378 1.6251C2.19922 1.43966 2.42669 1.342 2.67394 1.342C2.96322 1.342 3.25498 1.47427 3.49605 1.71534L7.60783 5.72451L4.62104 2.6549C4.40469 2.43855 4.27241 2.17523 4.25016 1.91314C4.22667 1.63499 4.3231 1.37908 4.52956 1.17263C4.71499 0.98719 4.94246 0.889526 5.18972 0.889526C5.48023 0.889526 5.77199 1.02304 6.01182 1.26411L6.90316 2.13814C8.49175 3.69582 9.81948 5.00007 9.96165 5.14595C10.0309 5.20158 10.1211 5.22259 10.1595 5.20405C10.1842 5.19169 10.2114 5.13482 10.2064 5.0149C10.199 4.80474 10.1693 4.54389 10.1384 4.26821C10.0766 3.71436 10.0123 3.14074 10.0927 2.76245C10.2682 2.106 10.6132 1.82784 10.8703 1.70793C11.2239 1.54474 11.5663 1.60161 11.6318 1.63251C12.2747 1.93416 12.1473 2.43855 11.9718 3.13827L11.9681 3.15558L11.9483 3.30022C11.8197 3.93318 12.4799 5.68248 13.1401 7.10788L13.15 7.12766C13.5913 8.09194 14.3862 10.5657 12.2598 12.692C11.282 13.6674 10.2237 14 9.26935 14ZM1.79744 6.77286C1.65156 6.77286 1.5131 6.83343 1.39936 6.94717C1.28192 7.06461 1.24112 7.17835 1.26585 7.31433C1.29304 7.46392 1.40307 7.64194 1.57491 7.81502C1.57615 7.81625 1.6256 7.86447 1.7109 7.94606C4.6062 10.7561 6.35427 12.4262 6.63366 12.6512L6.64849 12.6648C7.33091 13.3472 9.86646 14.5588 11.9965 12.4287C13.9585 10.4668 13.2204 8.176 12.8112 7.28096L12.8026 7.26241C12.3773 6.34511 11.4105 4.11986 11.5824 3.23223L11.6108 3.04679C11.8012 2.2902 11.8123 2.13196 11.4897 1.97619C11.3945 1.95889 10.7121 1.87606 10.4512 2.84899C10.3857 3.15929 10.4487 3.72673 10.5044 4.22741C10.5365 4.51051 10.5662 4.77878 10.5736 5.00254C10.586 5.35487 10.4191 5.48962 10.3177 5.53907C10.1112 5.63921 9.86522 5.55391 9.71193 5.42534L9.69586 5.4105C9.62045 5.32891 7.82664 3.56972 6.63984 2.40517L5.74727 1.52867C5.44315 1.22331 5.05125 1.17263 4.78793 1.43595C4.65936 1.56452 4.60126 1.71534 4.61486 1.88224C4.62969 2.05655 4.72365 2.23828 4.88065 2.39528L7.87362 5.4649C8.01455 5.6083 8.01455 5.84319 7.87115 5.9866C7.73392 6.12382 7.49162 6.12629 7.35069 5.99031L3.2352 1.97867C2.93108 1.67455 2.53795 1.62386 2.27587 1.88718C2.1473 2.01575 2.08919 2.16658 2.10279 2.33347C2.11886 2.50778 2.21282 2.69075 2.36858 2.84528L6.40248 6.98178C6.54465 7.12519 6.54341 7.36007 6.40001 7.50348C6.26278 7.6407 6.02048 7.64318 5.87954 7.50719L2.52064 4.23235C2.21653 3.92576 1.8234 3.87631 1.56131 4.13964C1.24112 4.45983 1.41173 4.85666 1.65403 5.1002L4.93876 8.49248C5.07969 8.63589 5.07845 8.86954 4.93505 9.01171C4.79659 9.15017 4.55675 9.15141 4.41582 9.01665L2.35993 7.04112C2.18686 6.86681 1.98782 6.77286 1.79744 6.77286Z" fill="#EDA600"/>
<path d="M9.63649 5.26712C8.95779 6.65296 9.04556 8.59264 10.0642 10.1491C10.1792 10.3592 10.3758 10.2566 10.2756 10.0403C9.04556 7.40831 10.335 5.5119 10.335 5.5119L9.63649 5.26712Z" fill="#EDA600"/>
<path d="M6.96747 0.069897C7.34082 -0.027767 7.73889 -0.0191132 8.12584 0.0711333C8.51031 0.163852 8.89479 0.35918 9.18036 0.678134C9.45975 0.994614 9.63159 1.37909 9.6897 1.78211C9.74409 2.18142 9.69341 2.59309 9.50426 2.9343C9.48201 2.55106 9.41525 2.19873 9.30275 1.87359C9.24465 1.71164 9.17665 1.55711 9.09382 1.41123C9.01223 1.26659 8.9158 1.12318 8.81319 1.00574C8.60427 0.764671 8.32117 0.576761 8.00345 0.430883C7.6845 0.28006 7.33711 0.168797 6.96747 0.069897Z" fill="#B0BEC5"/>
<path d="M7.07001 1.24187C7.27646 1.11083 7.53484 1.08363 7.77838 1.1269C8.0244 1.17017 8.25928 1.29256 8.44472 1.46193C8.62892 1.63377 8.75997 1.85011 8.84156 2.07511C8.88112 2.18761 8.9009 2.30629 8.91944 2.42126C8.92562 2.53994 8.92562 2.65862 8.90708 2.7773C8.82178 2.68705 8.75502 2.59681 8.69197 2.50903C8.61903 2.4262 8.56217 2.33843 8.49664 2.25807C8.36807 2.0986 8.24321 1.95396 8.10846 1.82538C7.97 1.70052 7.82412 1.5905 7.65476 1.49531C7.48663 1.39764 7.29748 1.31605 7.07001 1.24187Z" fill="#90A4AE"/>
<path d="M0.00236285 9.07477C0.176675 9.41597 0.358404 9.73246 0.569803 10.0118C0.779966 10.2912 1.02104 10.5286 1.30166 10.6831C1.43765 10.7585 1.5996 10.8241 1.75784 10.8735C1.91732 10.9242 2.08298 10.9588 2.25358 10.9823C2.59479 11.0243 2.9533 11.0169 3.33283 10.9588C3.0386 11.2147 2.64547 11.3507 2.24493 11.3804C1.83943 11.4076 1.42776 11.3198 1.05936 11.1121C0.688483 10.9007 0.416508 10.5645 0.245905 10.2072C0.0753018 9.84743 -0.0161809 9.46048 0.00236285 9.07477Z" fill="#B0BEC5"/>
<path d="M1.17067 8.93011C1.29058 9.13781 1.40927 9.3047 1.53907 9.45058C1.66764 9.59646 1.8061 9.71637 1.95693 9.82516C2.11022 9.93024 2.27835 10.023 2.46132 10.1157C2.5528 10.1627 2.65046 10.1997 2.74689 10.2541C2.84703 10.2974 2.9484 10.3432 3.05472 10.4087C2.94222 10.4507 2.82725 10.4754 2.7098 10.494C2.5936 10.4989 2.47368 10.5051 2.355 10.489C2.11764 10.4569 1.88028 10.3741 1.67259 10.2294C1.46861 10.0823 1.29924 9.87832 1.20652 9.64714C1.11256 9.4172 1.08537 9.16006 1.17067 8.93011Z" fill="#90A4AE"/>
<defs>
<radialGradient id="paint0_radial_1_11" cx="0" cy="0" r="1" gradientUnits="userSpaceOnUse" gradientTransform="translate(4.60323 4.21134) rotate(-45) scale(11.2508)">
<stop offset="0.3533" stop-color="#FFCA28"/>
<stop offset="0.8723" stop-color="#FFB300"/>
</radialGradient>
</defs>
</svg>
